<?xml version="1.0" standalone="no"?>
<!DOCTYPE svg PUBLIC "-//W3C//DTD SVG 20010904//EN"
 "http://www.w3.org/TR/2001/REC-SVG-20010904/DTD/svg10.dtd">
<svg version="1.0" xmlns="http://www.w3.org/2000/svg"
 width="800.000000pt" height="800.000000pt" viewBox="0 0 800.000000 800.000000"
 preserveAspectRatio="xMidYMid meet">

<g transform="translate(0.000000,800.000000) scale(0.100000,-0.100000)"
fill="#000000" stroke="none">
<path d="M2508 5722 c-2 -4 -2 -465 0 -1024 l2 -1018 80 0 80 0 -2 945 -3 945
1245 0 c685 0 1264 0 1286 0 l41 0 2 80 2 80 -1365 0 c-751 0 -1366 -4 -1368
-8z"/>
<path d="M2790 4423 l0 -1023 1365 0 1365 0 0 1020 0 1020 -1365 2 -1365 3 0
-1022z m2568 -3 c-2 -473 -6 -860 -10 -860 -5 0 -546 0 -1203 0 l-1195 0 0
860 0 860 1205 0 1205 0 -2 -860z"/>
<path d="M4865 5090 c3 -5 0 -7 -9 -4 -24 9 -91 -35 -128 -85 -75 -100 -69
-233 16 -324 15 -16 31 -25 38 -21 6 4 8 3 4 -4 -11 -18 80 -52 140 -52 62 0
147 34 183 73 72 79 88 199 40 294 -30 58 -113 126 -146 120 -12 -2 -20 0 -17
4 3 5 -25 9 -61 9 -41 0 -64 -4 -60 -10z m240 -410 c-3 -5 -12 -10 -18 -10 -7
0 -6 4 3 10 19 12 23 12 15 0z"/>
<path d="M3513 4911 c-39 -25 -88 -95 -77 -112 4 -8 3 -9 -5 -5 -24 15 -127
-258 -185 -495 -19 -79 -51 -229 -71 -334 -19 -104 -37 -199 -40 -210 -4 -20
1 -20 1022 -18 564 1 1027 4 1030 7 9 9 -128 166 -139 159 -7 -3 -8 -1 -4 6
13 21 -294 359 -314 346 -6 -3 -8 0 -5 7 4 13 -94 100 -149 131 -44 24 -89 22
-124 -8 -34 -28 -116 -180 -107 -195 4 -6 3 -9 -2 -8 -4 1 -26 -16 -48 -39
-43 -44 -106 -68 -148 -58 -13 4 -38 19 -55 35 -17 15 -34 25 -38 21 -4 -3 -4
-1 0 6 3 6 2 14 -4 18 -6 3 -19 24 -31 46 -11 22 -23 38 -27 35 -4 -2 -7 6 -8
17 -1 20 -112 282 -183 429 -39 84 -98 168 -139 203 -44 37 -105 43 -149 16z"/>
<path d="M1721 2969 c-1 -9 7 -23 17 -30 15 -12 16 -12 6 1 -6 8 -14 22 -17
30 -5 13 -6 12 -6 -1z"/>
<path d="M2330 2965 c0 -8 5 -15 10 -15 6 0 10 7 10 15 0 8 -4 15 -10 15 -5 0
-10 -7 -10 -15z"/>
<path d="M2399 2971 c9 -6 10 -10 2 -14 -8 -4 -8 -5 1 -3 20 4 21 26 1 26 -14
0 -15 -2 -4 -9z"/>
<path d="M1520 2948 c0 -11 7 -18 18 -18 14 0 15 2 2 10 -10 6 -11 10 -2 10 6
0 12 4 12 8 0 5 -7 9 -15 9 -8 0 -15 -9 -15 -19z"/>
<path d="M2365 2960 c-3 -5 -1 -10 4 -10 6 0 11 5 11 10 0 6 -2 10 -4 10 -3 0
-8 -4 -11 -10z"/>
<path d="M2263 2948 c-4 -7 -9 -24 -11 -38 -2 -14 -7 -29 -13 -34 -5 -6 -9
-15 -9 -20 0 -19 29 30 32 55 2 13 7 30 11 37 5 6 6 12 3 12 -3 0 -8 -6 -13
-12z"/>
<path d="M1692 2938 c2 -6 10 -13 16 -14 7 -1 8 0 2 3 -5 2 -8 9 -4 14 3 5 0
9 -6 9 -7 0 -10 -5 -8 -12z"/>
<path d="M1530 2910 c10 -6 11 -10 3 -10 -7 0 -13 -7 -13 -16 0 -14 2 -14 15
0 20 20 19 36 -2 36 -15 0 -16 -2 -3 -10z"/>
<path d="M1680 2911 c0 -6 4 -13 10 -16 6 -3 7 1 4 9 -7 18 -14 21 -14 7z"/>
<path d="M1727 2903 c-4 -3 -7 -13 -7 -20 0 -20 23 -11 26 10 2 17 -7 22 -19
10z"/>
<path d="M1855 2890 c-3 -5 8 -7 25 -5 17 2 28 0 25 -4 -2 -5 2 -14 10 -21 11
-9 12 -17 5 -30 -7 -13 -6 -21 2 -26 7 -5 8 -3 3 6 -6 9 -4 12 6 8 19 -7 20
45 2 63 -15 15 -70 21 -78 9z m83 -35 c-3 -3 -9 2 -12 12 -6 14 -5 15 5 6 7
-7 10 -15 7 -18z"/>
<path d="M2061 2891 c-10 -6 -9 -10 3 -14 8 -3 18 -2 21 3 8 13 -9 20 -24 11z"/>
<path d="M2100 2896 c0 -3 9 -10 20 -16 11 -6 20 -8 20 -6 0 3 -9 10 -20 16
-11 6 -20 8 -20 6z"/>
<path d="M2556 2892 c-3 -5 1 -9 9 -9 8 0 15 4 15 9 0 4 -4 8 -9 8 -6 0 -12
-4 -15 -8z"/>
<path d="M2754 2885 c-39 -16 -50 -40 -20 -42 11 0 15 1 9 4 -7 3 -13 9 -13
14 0 4 7 5 17 2 10 -4 14 -2 10 4 -9 15 32 24 54 12 14 -7 17 -6 14 4 -7 17
-33 18 -71 2z"/>
<path d="M3295 2891 c-3 -6 -11 -9 -16 -6 -5 4 -9 -2 -9 -12 0 -15 -2 -16 -10
-3 -7 12 -9 10 -7 -7 l1 -23 26 23 c14 12 27 23 29 25 2 1 2 5 -1 8 -3 3 -9 0
-13 -5z"/>
<path d="M3330 2891 c0 -5 8 -12 18 -17 24 -11 52 -13 46 -3 -2 4 -12 5 -21 2
-12 -5 -14 -3 -8 7 5 9 4 11 -3 6 -7 -4 -12 -2 -12 3 0 6 -4 11 -10 11 -5 0
-10 -4 -10 -9z"/>
<path d="M3490 2889 c0 -5 -4 -8 -8 -5 -13 8 -11 -28 2 -36 8 -5 7 -8 -1 -8
-7 0 -13 -8 -12 -17 0 -11 3 -13 6 -5 2 6 8 10 12 8 4 -3 8 13 8 35 0 21 -1
39 -3 39 -2 0 -4 -5 -4 -11z"/>
<path d="M3978 2884 c-17 -9 -25 -20 -22 -29 4 -8 8 -15 11 -15 3 0 2 7 -1 16
-5 12 -2 15 9 10 11 -4 14 -2 9 6 -5 8 -2 9 10 5 11 -5 15 -3 10 5 -5 7 0 9
14 6 12 -4 22 -2 22 3 0 13 -31 10 -62 -7z"/>
<path d="M4342 2891 c-11 -7 -11 -9 1 -14 9 -3 18 1 21 9 6 16 -2 18 -22 5z"/>
<path d="M4381 2884 c0 -11 3 -14 6 -6 3 7 2 16 -1 19 -3 4 -6 -2 -5 -13z"/>
<path d="M4500 2885 c0 -13 56 -19 64 -6 3 5 -3 7 -14 4 -11 -3 -20 -1 -20 4
0 5 -7 10 -15 10 -8 0 -15 -5 -15 -12z"/>
<path d="M4592 2888 c-7 -7 -12 -16 -12 -22 0 -5 7 -1 15 10 8 11 15 14 15 7
0 -7 6 -13 14 -13 8 0 18 6 22 13 4 6 4 9 -1 5 -4 -4 -15 -3 -25 2 -11 6 -21
5 -28 -2z"/>
<path d="M4785 2891 c-11 -5 -25 -6 -31 -4 -12 5 -40 -25 -31 -33 8 -8 28 6
22 15 -2 5 7 9 21 9 14 0 31 5 37 11 13 13 10 13 -18 2z"/>
<path d="M5060 2878 c-24 -26 -26 -40 -5 -32 8 4 12 10 9 15 -3 5 -1 9 4 9 6
0 12 7 16 15 8 21 0 19 -24 -7z"/>
<path d="M5219 2884 c-14 -17 -33 -19 -23 -1 4 6 3 8 -1 4 -13 -11 -15 -37 -3
-37 6 0 4 -8 -3 -17 -13 -16 -12 -17 3 -4 10 7 16 16 13 20 -2 4 5 15 15 24
11 9 20 12 22 5 2 -6 11 -9 21 -7 13 3 12 6 -8 15 -19 9 -27 9 -36 -2z"/>
<path d="M5624 2888 c-3 -5 -3 -12 0 -15 3 -4 6 0 6 8 0 12 2 12 9 1 5 -8 16
-12 25 -10 12 2 10 6 -9 15 -16 7 -27 8 -31 1z"/>
<path d="M5785 2889 c-4 -6 -13 -8 -21 -5 -8 3 -14 1 -14 -4 0 -5 15 -8 33 -8
17 1 26 3 19 5 -6 3 -10 9 -6 14 3 5 3 9 0 9 -3 0 -8 -5 -11 -11z"/>
<path d="M5829 2877 c14 -15 31 -27 40 -27 11 0 10 -4 -5 -16 -18 -14 -18 -15
4 -4 22 11 22 13 9 33 -8 12 -21 22 -28 22 -8 0 -21 5 -29 9 -8 5 -4 -3 9 -17z
m36 -7 c3 -5 1 -10 -4 -10 -6 0 -11 5 -11 10 0 6 2 10 4 10 3 0 8 -4 11 -10z"/>
<path d="M6225 2889 c-20 -9 -20 -9 0 -8 11 1 22 0 25 -1 18 -7 39 -7 35 0 -8
13 -39 17 -60 9z"/>
<path d="M6420 2891 c0 -6 4 -13 10 -16 6 -3 7 1 4 9 -7 18 -14 21 -14 7z"/>
<path d="M1653 2873 c0 -9 4 -10 14 -2 7 6 13 12 13 14 0 1 -6 2 -13 2 -8 0
-14 -6 -14 -14z"/>
<path d="M2299 2873 c-13 -16 -12 -17 4 -4 9 7 17 15 17 17 0 8 -8 3 -21 -13z"/>
<path d="M2336 2882 c-3 -5 1 -9 9 -9 8 0 15 4 15 9 0 4 -4 8 -9 8 -6 0 -12
-4 -15 -8z"/>
<path d="M2483 2868 c0 -15 2 -26 6 -25 3 1 6 -2 6 -8 0 -5 -3 -9 -7 -8 -10 4
0 -59 11 -70 6 -6 9 -4 7 6 -1 9 -5 20 -9 23 -10 10 -9 26 2 20 5 -3 11 3 14
14 3 11 1 23 -4 26 -6 3 -7 15 -4 27 5 16 4 18 -3 8 -8 -11 -10 -11 -14 0 -3
8 -5 2 -5 -13z"/>
<path d="M3050 2880 c0 -5 7 -10 16 -10 8 0 12 5 9 10 -3 6 -10 10 -16 10 -5
0 -9 -4 -9 -10z"/>
<path d="M3149 2882 c-1 -4 -1 -11 0 -16 1 -4 -6 -14 -15 -21 -11 -7 -14 -17
-9 -25 6 -9 12 -6 22 14 8 14 11 32 7 38 -5 7 -2 9 9 5 9 -3 18 -3 21 1 3 4
-4 9 -15 9 -10 1 -20 -1 -20 -5z"/>
<path d="M3626 2874 c-3 -9 -4 -20 0 -25 3 -5 0 -9 -6 -9 -6 0 -8 -4 -5 -10
12 -19 20 -10 21 25 1 39 -1 43 -10 19z"/>
<path d="M3712 2863 c0 -16 5 -31 12 -35 8 -6 7 -8 -1 -8 -17 0 -17 -17 0 -23
14 -5 16 20 4 40 -5 7 -3 22 3 33 8 16 8 20 -3 20 -9 0 -15 -11 -15 -27z"/>
<path d="M3839 2883 c-1 -5 -1 -11 0 -15 0 -5 -4 -8 -11 -8 -6 0 -3 -6 7 -14
21 -15 35 -12 35 6 0 5 -7 8 -14 5 -10 -4 -13 -1 -9 8 3 8 9 12 14 9 5 -3 9 0
9 5 0 12 -29 15 -31 4z"/>
<path d="M4050 2885 c0 -11 39 -43 45 -37 4 4 5 -10 2 -30 -4 -29 -2 -35 10
-31 19 8 9 49 -20 80 -21 21 -37 29 -37 18z"/>
<path d="M4405 2880 c-4 -6 1 -7 11 -3 11 4 15 3 10 -5 -3 -6 2 -16 13 -21 30
-17 33 -13 9 14 -23 27 -33 31 -43 15z"/>
<path d="M4816 2881 c-5 -8 22 -24 34 -21 2 1 7 -7 11 -17 7 -16 8 -16 8 -1 2
30 -40 60 -53 39z"/>
<path d="M4915 2870 c9 -10 14 -23 10 -29 -4 -7 0 -8 10 -5 10 4 12 10 6 18
-5 6 -9 15 -8 20 1 5 -6 10 -16 12 -18 2 -18 1 -2 -16z"/>
<path d="M5516 2879 c6 -10 44 -7 44 3 0 4 -11 7 -24 6 -14 -1 -23 -6 -20 -9z"/>
<path d="M5584 2879 c-4 -8 -3 -9 4 -5 15 9 16 -6 1 -21 -8 -8 -8 -13 0 -17 6
-4 11 -6 12 -4 10 44 0 74 -17 47z"/>
<path d="M5937 2883 c-7 -13 1 -47 12 -51 5 -2 7 -10 4 -18 -3 -9 1 -14 13
-14 14 0 15 -3 6 -12 -8 -8 -9 -15 -1 -25 13 -15 29 -17 29 -3 0 6 -3 9 -7 9
-19 -3 -27 2 -14 10 11 7 10 13 -3 33 -9 14 -13 28 -9 32 5 4 4 7 -2 6 -21 -5
-29 1 -15 10 11 7 12 12 4 20 -7 7 -14 8 -17 3z"/>
<path d="M6076 2882 c-3 -5 1 -9 9 -9 8 0 15 4 15 9 0 4 -4 8 -9 8 -6 0 -12
-4 -15 -8z"/>
<path d="M6170 2880 c-12 -7 -10 -9 8 -7 12 0 22 5 22 9 0 11 -12 10 -30 -2z"/>
<path d="M6350 2880 c0 -5 5 -10 11 -10 5 0 7 5 4 10 -3 6 -8 10 -11 10 -2 0
-4 -4 -4 -10z"/>
<path d="M6505 2880 c-3 -5 -1 -10 4 -10 6 0 11 5 11 10 0 6 -2 10 -4 10 -3 0
-8 -4 -11 -10z"/>
<path d="M2016 2864 c-20 -19 -20 -34 -1 -34 18 0 39 36 26 44 -5 4 -17 -1
-25 -10z m24 2 c0 -2 -8 -10 -17 -17 -16 -13 -17 -12 -4 4 13 16 21 21 21 13z"/>
<path d="M2376 2871 c-4 -5 -2 -12 3 -15 5 -4 12 -2 15 3 4 5 2 12 -3 15 -5 4
-12 2 -15 -3z"/>
<path d="M2863 2865 c0 -8 4 -12 9 -9 4 3 8 9 8 15 0 5 -4 9 -8 9 -5 0 -9 -7
-9 -15z"/>
<path d="M4303 2868 c-21 -28 -22 -36 -5 -49 16 -13 16 -13 2 5 -14 18 -13 19
4 13 15 -6 17 -5 8 6 -9 10 -8 17 0 25 7 7 9 12 6 12 -3 0 -10 -6 -15 -12z"/>
<path d="M5450 2870 c0 -5 5 -10 10 -10 6 0 10 5 10 10 0 6 -4 10 -10 10 -5 0
-10 -4 -10 -10z"/>
<path d="M2253 2848 c-27 -30 -27 -61 -1 -47 22 12 24 21 3 13 -8 -4 -15 -2
-15 4 0 5 8 12 18 14 10 3 19 13 19 22 0 20 0 20 -24 -6z"/>
<path d="M2984 2841 c2 -19 11 -38 20 -43 9 -5 13 -15 9 -21 -5 -8 -2 -8 9 1
8 7 24 10 34 6 18 -5 18 -5 1 6 -9 6 -20 9 -25 7 -8 -6 -26 13 -30 33 -2 8 -8
21 -12 30 -7 10 -8 5 -6 -19z"/>
<path d="M5730 2861 c0 -6 4 -13 10 -16 6 -3 7 1 4 9 -7 18 -14 21 -14 7z"/>
<path d="M1728 2853 c7 -3 16 -2 19 1 4 3 -2 6 -13 5 -11 0 -14 -3 -6 -6z"/>
<path d="M2159 2851 c8 -5 11 -16 6 -30 -5 -15 -2 -21 9 -21 19 0 19 1 6 34
-5 14 -15 26 -22 26 -10 0 -10 -2 1 -9z"/>
<path d="M3062 2855 c4 -4 3 -14 -4 -22 -8 -11 -7 -12 6 -7 19 7 21 20 4 30
-7 4 -10 4 -6 -1z"/>
<path d="M5340 2850 c-9 -6 -10 -10 -3 -10 6 0 15 5 18 10 8 12 4 12 -15 0z"/>
<path d="M6295 2850 c-10 -15 5 -51 17 -44 8 5 9 1 4 -12 -5 -14 -4 -16 4 -8
12 12 3 47 -11 38 -5 -3 -9 2 -9 11 0 10 5 13 12 9 7 -4 8 -3 4 4 -9 15 -13
15 -21 2z"/>
<path d="M6427 2847 c-3 -8 0 -14 7 -14 7 0 13 6 13 14 0 7 -4 13 -8 13 -4 0
-9 -6 -12 -13z"/>
<path d="M1628 2839 c-11 -6 -15 -16 -11 -26 4 -11 3 -14 -5 -9 -7 4 -12 2
-12 -3 0 -19 22 -12 27 9 3 11 10 17 16 13 5 -3 7 -1 3 5 -3 5 0 13 6 15 7 3
9 6 3 6 -5 0 -18 -4 -27 -10z"/>
<path d="M2410 2842 c0 -7 -5 -10 -11 -6 -8 4 -8 1 -1 -12 5 -11 7 -25 5 -31
-3 -7 1 -13 9 -13 10 0 9 -3 -2 -10 -11 -7 -11 -10 -2 -10 8 0 10 -5 6 -12 -4
-8 -3 -9 2 -5 11 11 14 78 3 97 -6 11 -8 11 -9 2z"/>
<path d="M2881 2842 c-1 -8 -6 -10 -13 -6 -10 5 -10 4 -1 -6 15 -16 28 -8 20
12 -4 11 -6 11 -6 0z"/>
<path d="M3387 2830 c5 -19 -22 -34 -39 -23 -6 3 -8 1 -5 -4 4 -6 -4 -10 -18
-10 -16 0 -22 4 -18 11 4 6 -1 5 -10 -3 -9 -7 -17 -15 -17 -16 0 -6 76 2 88 9
7 4 19 2 27 -4 8 -7 15 -11 16 -9 6 27 4 47 -4 42 -6 -4 -8 0 -5 9 4 8 1 15
-7 15 -7 0 -10 -8 -8 -17z"/>
<path d="M4591 2835 c-1 -16 -3 -17 -10 -6 -6 10 -9 2 -9 -23 0 -20 4 -36 9
-36 6 0 9 6 8 13 -1 6 1 20 5 29 5 10 6 23 3 30 -3 7 -6 4 -6 -7z"/>
<path d="M5456 2838 c3 -5 10 -6 15 -3 13 9 11 12 -6 12 -8 0 -12 -4 -9 -9z"/>
<path d="M1728 2833 c7 -3 16 -2 19 1 4 3 -2 6 -13 5 -11 0 -14 -3 -6 -6z"/>
<path d="M3796 2818 c-8 -12 -13 -25 -11 -29 3 -4 -2 -10 -11 -13 -8 -3 -13
-9 -10 -14 2 -4 -4 -19 -14 -32 l-19 -25 3 27 c2 15 -1 25 -5 22 -9 -5 -13 11
-9 31 1 6 -2 7 -6 2 -14 -14 -11 -45 7 -68 16 -21 18 -22 34 -6 9 9 14 17 10
17 -3 0 3 13 14 29 11 15 18 31 14 35 -3 3 0 6 7 6 7 0 10 3 7 7 -4 3 -2 12 4
20 6 7 9 13 6 13 -3 0 -13 -10 -21 -22z"/>
<path d="M3940 2830 c0 -5 5 -10 11 -10 5 0 7 5 4 10 -3 6 -8 10 -11 10 -2 0
-4 -4 -4 -10z"/>
<path d="M2649 2815 c-1 -11 -3 -24 -3 -30 -1 -5 -4 -14 -7 -20 -3 -5 -3 -21
2 -35 6 -21 7 -22 9 -5 1 11 2 24 1 29 -1 4 2 13 7 20 5 6 5 22 1 36 -6 22 -7
22 -10 5z"/>
<path d="M4455 2810 c-3 -11 -4 -24 0 -29 3 -5 1 -12 -5 -16 -6 -4 -8 -10 -5
-15 3 -5 -6 -17 -20 -28 -13 -11 -21 -23 -17 -26 4 -4 -7 -5 -23 -2 -26 6 -27
5 -7 -4 27 -11 62 5 62 30 0 13 2 13 11 0 9 -13 10 -12 5 3 -3 10 0 17 7 17 8
0 6 4 -3 10 -8 5 -10 10 -4 10 5 0 10 16 11 35 1 39 -3 44 -12 15z"/>
<path d="M5031 2812 c-7 -14 -6 -19 4 -19 8 0 11 5 8 10 -3 5 1 13 8 18 10 6
10 9 2 9 -7 0 -17 -8 -22 -18z"/>
<path d="M5741 2819 c0 -9 6 -22 14 -29 10 -9 15 -9 15 -1 0 6 -4 11 -9 11 -5
0 -12 8 -14 18 -4 14 -5 14 -6 1z"/>
<path d="M6135 2821 c-3 -5 0 -13 6 -17 7 -4 9 -3 5 4 -3 5 0 13 6 15 9 4 10
6 1 6 -6 1 -14 -3 -18 -8z"/>
<path d="M1723 2788 c2 -38 11 -49 20 -25 3 7 -1 24 -8 38 -13 23 -14 23 -12
-13z"/>
<path d="M2000 2810 c0 -5 5 -10 11 -10 5 0 7 5 4 10 -3 6 -8 10 -11 10 -2 0
-4 -4 -4 -10z"/>
<path d="M3851 2750 c0 -38 2 -70 4 -70 3 0 9 10 16 21 6 12 7 19 1 15 -6 -3
-9 15 -7 49 1 30 -2 55 -6 55 -4 0 -8 -31 -8 -70z"/>
<path d="M4930 2810 c0 -6 4 -9 9 -6 12 8 22 -20 14 -41 -5 -12 -3 -14 7 -8 9
6 12 4 8 -7 -4 -8 -1 -15 7 -15 10 0 9 10 -4 41 -17 38 -41 60 -41 36z"/>
<path d="M5589 2766 c5 -52 7 -49 13 15 2 20 -1 36 -7 36 -6 0 -8 -20 -6 -51z"/>
<path d="M5866 2813 c-4 -5 -11 -8 -14 -9 -4 0 -14 -3 -22 -7 -8 -3 -24 -8
-35 -10 -13 -3 -9 -5 11 -6 18 -1 42 7 55 19 13 10 21 19 18 20 -3 0 -9 -3
-13 -7z"/>
<path d="M6066 2803 c-6 -14 -5 -15 5 -6 7 7 10 15 7 18 -3 3 -9 -2 -12 -12z"/>
<path d="M6424 2798 c0 -13 6 -26 11 -30 7 -5 6 -8 -1 -8 -5 0 -9 -15 -8 -32
2 -50 4 -54 13 -40 11 18 7 110 -6 123 -7 7 -10 4 -9 -13z"/>
<path d="M2830 2795 c-11 -13 -10 -14 4 -9 9 3 16 10 16 15 0 13 -6 11 -20 -6z"/>
<path d="M2866 2802 c-3 -5 1 -9 9 -9 8 0 12 4 9 9 -3 4 -7 8 -9 8 -2 0 -6 -4
-9 -8z"/>
<path d="M3264 2799 c-3 -6 -15 -9 -25 -6 -11 3 -19 1 -19 -4 0 -5 6 -9 13 -9
8 0 7 -4 -3 -10 -13 -8 -12 -10 3 -10 9 0 17 -5 17 -11 0 -5 -4 -7 -10 -4 -5
3 -10 3 -10 -2 1 -16 25 -38 45 -41 11 -2 22 -8 23 -13 2 -5 9 -6 14 -3 6 4
-4 14 -22 23 -38 18 -48 55 -22 84 8 9 12 17 9 17 -3 0 -9 -5 -13 -11z"/>
<path d="M3490 2799 c0 -6 -4 -8 -8 -5 -5 3 -8 -20 -8 -51 1 -36 6 -58 14 -61
8 -2 12 7 12 28 0 18 -4 29 -10 25 -5 -3 -10 -1 -10 4 0 6 4 11 9 11 5 0 7 8
4 19 -3 11 2 21 11 24 9 4 16 2 16 -3 0 -6 12 -10 26 -10 14 0 23 4 19 10 -4
6 -11 8 -16 5 -5 -4 -15 -3 -21 2 -19 11 -38 12 -38 2z m-3 -101 c-3 -8 -6 -5
-6 6 -1 11 2 17 5 13 3 -3 4 -12 1 -19z"/>
<path d="M3595 2795 c-16 -12 -17 -14 -2 -9 13 5 17 1 17 -20 0 -14 4 -26 10
-26 12 0 24 44 17 62 -3 7 -6 0 -7 -17 l-2 -30 -7 28 c-6 26 -7 27 -26 12z"/>
<path d="M3936 2798 c3 -5 12 -7 20 -4 8 3 14 1 14 -5 0 -6 5 -7 11 -4 14 9 6
16 -25 19 -14 2 -23 -1 -20 -6z"/>
<path d="M4046 2801 c-3 -5 -16 -7 -29 -4 -12 3 -20 3 -17 0 3 -3 18 -8 33
-11 19 -3 27 0 27 10 0 16 -6 18 -14 5z"/>
<path d="M4700 2788 c0 -10 5 -18 12 -18 6 0 8 3 5 7 -4 3 -2 11 3 18 7 8 5
12 -5 12 -8 0 -15 -9 -15 -19z"/>
<path d="M1520 2787 c0 -10 8 -17 18 -17 9 0 13 4 7 8 -5 4 -13 11 -17 16 -5
5 -8 2 -8 -7z"/>
<path d="M2733 2783 c-9 -7 -12 -13 -6 -13 7 0 14 4 17 9 3 4 17 7 31 6 14 -2
27 0 29 4 8 12 -53 7 -71 -6z"/>
<path d="M3088 2793 c7 -3 16 -2 19 1 4 3 -2 6 -13 5 -11 0 -14 -3 -6 -6z"/>
<path d="M4289 2792 c11 -8 11 -10 0 -15 -8 -3 -9 -6 -3 -6 6 -1 9 -11 7 -25
-4 -17 3 -29 24 -44 23 -16 30 -18 30 -6 0 14 -3 15 -29 18 -8 1 -13 16 -13
40 0 26 -5 41 -15 43 -12 4 -12 3 -1 -5z"/>
<path d="M5182 2780 c0 -14 2 -19 5 -12 2 6 2 18 0 25 -3 6 -5 1 -5 -13z"/>
<path d="M6038 2778 c-6 -32 6 -58 15 -34 4 9 3 26 -2 38 -8 21 -8 21 -13 -4z"/>
<path d="M6186 2791 c-4 -5 3 -7 14 -4 23 6 26 13 6 13 -8 0 -17 -4 -20 -9z"/>
<path d="M6237 2788 c2 -5 10 -8 18 -8 8 0 16 3 18 8 3 4 -5 7 -18 7 -13 0
-21 -3 -18 -7z"/>
<path d="M1918 2772 c4 -10 7 -12 10 -4 2 7 8 9 13 6 6 -3 5 -11 -2 -20 -10
-12 -9 -13 5 -8 19 7 21 20 4 31 -23 14 -37 12 -30 -5z"/>
<path d="M2000 2775 c-8 -10 -9 -15 -2 -15 6 0 9 -6 6 -13 -7 -19 22 -42 32
-26 5 8 3 9 -6 4 -10 -6 -12 -3 -8 13 4 12 2 22 -4 22 -6 0 -8 7 -4 15 3 8 4
15 2 15 -2 0 -9 -7 -16 -15z"/>
<path d="M2160 2786 c0 -2 7 -6 15 -10 8 -3 15 -1 15 4 0 6 -7 10 -15 10 -8 0
-15 -2 -15 -4z"/>
<path d="M2247 2783 c-11 -11 -8 -20 8 -20 8 0 15 6 15 14 0 14 -12 17 -23 6z"/>
<path d="M5327 2770 c3 -11 7 -20 9 -20 2 0 4 9 4 20 0 11 -4 20 -9 20 -5 0
-7 -9 -4 -20z"/>
<path d="M1569 2763 c-12 -16 -12 -17 2 -6 9 7 20 9 24 5 5 -4 5 -1 1 6 -9 16
-11 15 -27 -5z"/>
<path d="M3118 2773 c6 -2 10 -9 7 -14 -4 -5 1 -6 9 -3 20 8 11 24 -12 23 -11
0 -12 -2 -4 -6z"/>
<path d="M3945 2770 c3 -5 8 -10 11 -10 2 0 4 5 4 10 0 6 -5 10 -11 10 -5 0
-7 -4 -4 -10z"/>
<path d="M5017 2767 c-3 -8 1 -14 9 -14 16 0 19 13 5 21 -5 3 -11 0 -14 -7z"/>
<path d="M5741 2764 c0 -11 3 -14 6 -6 3 7 2 16 -1 19 -3 4 -6 -2 -5 -13z"/>
<path d="M5871 2754 c23 -25 40 -34 21 -11 -6 6 -10 16 -9 21 1 5 -6 10 -17
12 -16 2 -16 0 5 -22z"/>
<path d="M2163 2750 c1 -11 5 -20 9 -20 11 0 10 28 -1 35 -6 3 -9 -4 -8 -15z"/>
<path d="M2872 2749 c10 -17 10 -23 1 -26 -7 -3 -13 -9 -13 -14 0 -6 5 -7 10
-4 6 3 10 -1 10 -9 0 -9 5 -16 11 -16 5 0 8 4 5 8 -3 5 -6 25 -8 45 -1 23 -7
37 -15 37 -11 0 -11 -4 -1 -21z"/>
<path d="M5310 2756 c0 -28 45 -68 78 -71 18 -1 32 2 32 7 0 6 -7 8 -15 5 -8
-4 -17 -2 -20 4 -4 5 -14 8 -23 7 -9 -2 -16 3 -14 10 1 6 -7 21 -18 32 -15 15
-20 16 -20 6z"/>
<path d="M1520 2720 c0 -22 5 -40 10 -40 14 0 60 50 60 64 0 7 -3 6 -8 -1 -6
-10 -12 -10 -28 2 -29 22 -34 18 -34 -25z m36 -5 c1 -8 -4 -15 -12 -15 -9 0
-13 9 -12 25 2 26 20 19 24 -10z"/>
<path d="M2717 2746 c-4 -10 -1 -13 9 -9 15 6 19 23 5 23 -5 0 -11 -7 -14 -14z"/>
<path d="M2970 2756 c0 -2 7 -6 15 -10 8 -3 15 -1 15 4 0 6 -7 10 -15 10 -8 0
-15 -2 -15 -4z"/>
<path d="M4580 2750 c10 -6 11 -10 3 -10 -7 0 -13 -9 -13 -19 0 -21 17 -37 28
-26 3 3 0 10 -8 15 -10 7 -11 10 -2 10 6 0 12 9 12 20 0 12 -7 20 -17 20 -15
0 -16 -2 -3 -10z"/>
<path d="M4715 2750 c-9 -15 2 -44 23 -57 15 -9 19 -8 19 3 0 7 -4 11 -9 8 -4
-3 -8 5 -8 18 0 19 -2 20 -11 8 -9 -12 -10 -11 -6 8 5 23 2 28 -8 12z"/>
<path d="M6164 2725 c35 -51 42 -57 23 -19 -9 17 -23 37 -33 44 -9 8 -4 -3 10
-25z"/>
<path d="M2260 2720 c12 -16 24 -30 27 -30 3 0 0 6 -6 13 -6 8 -8 17 -4 20 3
4 1 7 -6 7 -7 0 -9 5 -6 10 3 6 -1 10 -10 10 -14 0 -13 -4 5 -30z"/>
<path d="M2481 2734 c0 -11 3 -14 6 -6 3 7 2 16 -1 19 -3 4 -6 -2 -5 -13z"/>
<path d="M3146 2741 c-3 -5 7 -16 22 -25 l27 -17 -22 19 c-12 11 -19 22 -16
26 4 3 4 6 0 6 -3 0 -8 -4 -11 -9z"/>
<path d="M4850 2740 c0 -5 7 -7 15 -4 8 4 15 8 15 10 0 2 -7 4 -15 4 -8 0 -15
-4 -15 -10z"/>
<path d="M5720 2740 c0 -5 5 -10 11 -10 5 0 7 5 4 10 -3 6 -8 10 -11 10 -2 0
-4 -4 -4 -10z"/>
<path d="M1820 2731 c0 -12 21 -28 53 -40 18 -7 26 -7 22 -1 -3 6 -13 10 -21
10 -8 0 -23 9 -34 20 -11 11 -20 16 -20 11z"/>
<path d="M1946 2725 c-3 -9 -11 -13 -17 -9 -8 5 -9 3 -4 -5 6 -10 11 -9 23 3
9 8 13 18 10 21 -3 3 -8 -1 -12 -10z"/>
<path d="M2841 2727 c-6 -8 -8 -17 -4 -20 3 -4 -1 -7 -10 -7 -9 0 -19 -4 -22
-10 -4 -6 2 -7 17 -1 13 4 23 14 23 20 0 6 7 16 15 21 8 5 10 10 4 10 -6 0
-17 -6 -23 -13z"/>
<path d="M3355 2710 c-16 -16 -25 -30 -21 -30 5 0 17 11 28 25 11 14 23 23 28
20 5 -3 11 -1 15 5 14 23 -23 8 -50 -20z"/>
<path d="M4079 2724 c-10 -13 6 -32 18 -20 4 3 1 6 -6 6 -7 0 -9 5 -6 10 4 6
10 8 15 5 5 -3 11 -2 14 3 8 14 -23 10 -35 -4z"/>
<path d="M5010 2725 c-7 -9 -8 -15 -2 -15 5 0 12 7 16 15 3 8 4 15 2 15 -2 0
-9 -7 -16 -15z"/>
<path d="M6281 2726 c-15 -18 5 -34 22 -17 9 9 8 11 -5 6 -27 -10 -22 4 5 15
15 6 17 9 6 9 -9 1 -22 -5 -28 -13z"/>
<path d="M2495 2717 c-5 -7 -11 -19 -13 -27 -3 -12 0 -11 14 2 16 15 19 15 41
0 20 -12 29 -13 43 -4 14 9 20 8 23 -1 2 -7 9 -1 17 13 12 23 12 24 -3 11 -10
-7 -17 -10 -17 -7 0 4 -9 2 -19 -3 -14 -8 -25 -6 -44 9 -29 23 -29 23 -42 7z"/>
<path d="M5440 2715 c-15 -19 3 -27 25 -11 16 11 16 14 2 19 -8 3 -21 0 -27
-8z"/>
<path d="M1723 2700 c-1 -11 2 -20 7 -20 4 0 7 7 6 15 -3 23 -12 26 -13 5z"/>
<path d="M2129 2711 c-2 -5 -17 -12 -33 -15 -47 -9 -44 -19 4 -12 51 8 58 12
43 27 -7 7 -12 7 -14 0z"/>
<path d="M2386 2713 c-4 -5 -13 -8 -18 -8 -6 0 -13 -7 -15 -15 -4 -12 -3 -12
5 -2 5 8 12 13 16 12 12 -3 31 7 25 14 -3 3 -9 3 -13 -1z"/>
<path d="M2725 2711 c-3 -5 -1 -12 4 -15 5 -3 11 1 15 9 6 16 -9 21 -19 6z"/>
<path d="M4828 2708 c-8 -20 17 -18 35 2 10 12 9 12 -5 2 -13 -10 -17 -10 -20
0 -3 8 -6 7 -10 -4z"/>
<path d="M4976 2708 c3 -10 11 -18 17 -18 7 0 7 -4 -1 -12 -7 -7 -12 -20 -12
-31 0 -10 -4 -16 -9 -12 -5 3 -12 1 -16 -5 -3 -5 1 -10 9 -10 8 0 22 14 30 32
16 30 15 33 -4 52 -18 18 -20 18 -14 4z"/>
<path d="M5196 2707 c3 -10 9 -15 12 -12 3 3 0 11 -7 18 -10 9 -11 8 -5 -6z"/>
<path d="M6002 2705 c0 -11 3 -29 7 -40 8 -19 8 -19 15 3 4 13 5 26 2 29 -3 4
-6 0 -7 -8 -1 -8 -5 -3 -9 11 -6 20 -8 21 -8 5z"/>
<path d="M2040 2700 c-9 -6 -10 -10 -3 -10 6 0 15 5 18 10 8 12 4 12 -15 0z"/>
<path d="M2950 2700 c-9 -6 -10 -10 -3 -10 6 0 15 5 18 10 8 12 4 12 -15 0z"/>
<path d="M3375 2700 c-3 -6 1 -7 9 -4 18 7 21 14 7 14 -6 0 -13 -4 -16 -10z"/>
<path d="M3610 2700 c0 -5 7 -10 15 -10 8 0 15 5 15 10 0 6 -7 10 -15 10 -8 0
-15 -4 -15 -10z"/>
<path d="M5582 2699 c2 -6 8 -10 13 -10 5 0 11 4 13 10 2 6 -4 11 -13 11 -9 0
-15 -5 -13 -11z"/>
<path d="M5763 2695 c0 -8 4 -12 9 -9 5 3 6 10 3 15 -9 13 -12 11 -12 -6z"/>
<path d="M5802 2694 c-7 -8 -8 -14 -3 -14 10 0 25 19 20 25 -2 1 -10 -3 -17
-11z"/>
<path d="M5845 2700 c-3 -5 -2 -10 4 -10 5 0 13 5 16 10 3 6 2 10 -4 10 -5 0
-13 -4 -16 -10z"/>
<path d="M2760 2690 c-8 -5 -10 -10 -5 -10 6 0 17 5 25 10 8 5 11 10 5 10 -5
0 -17 -5 -25 -10z"/>
<path d="M4010 2690 c-12 -7 -10 -9 7 -7 12 0 19 5 17 9 -6 10 -6 10 -24 -2z"/>
<path d="M4787 2689 c7 -7 15 -10 18 -7 3 3 -2 9 -12 12 -14 6 -15 5 -6 -5z"/>
<path d="M6216 2691 c-3 -4 9 -8 27 -9 34 -3 33 6 -1 13 -12 2 -24 0 -26 -4z"/>
<path d="M2480 2660 c0 -5 5 -10 11 -10 5 0 7 5 4 10 -3 6 -8 10 -11 10 -2 0
-4 -4 -4 -10z"/>
<path d="M4926 2611 c-4 -5 -2 -12 3 -15 5 -4 12 -2 15 3 4 5 2 12 -3 15 -5 4
-12 2 -15 -3z"/>
<path d="M2488 2603 c7 -3 16 -2 19 1 4 3 -2 6 -13 5 -11 0 -14 -3 -6 -6z"/>
</g>
</svg>
